# xmcd
#
# Track frame offsets: 
#        150
#        23481
#        48710
#        70795
#        86495
#        110855
#        152420
#        169875
#        198185
#        237422
#        257882
#        270605
#
# Disc length: 4074 seconds
#
# Revision: 0
# Processed by: cddbd v1.5.2PL0 Copyright (c) Steve Scherf et al.
# Submitted via: ExactAudioCopy v0.99pb4
#
DISCID=a00fe80c
DTITLE=задорнов михаил - когда смешно, тогда не страшно
DYEAR=2008
DGENRE=
TTITLE0=монолог главного редактора
TTITLE1=солнечное затмение
TTITLE2=тв программа
TTITLE3=что хочут, то и делают
TTITLE4=циля
TTITLE5=мы
TTITLE6=картина века
TTITLE7=сервис
TTITLE8=прощенное воскресенье
TTITLE9=сыр
TTITLE10=свиньи
TTITLE11=кофточка
EXTD=
EXTT0=
EXTT1=
EXTT2=
EXTT3=
EXTT4=
EXTT5=
EXTT6=
EXTT7=
EXTT8=
EXTT9=
EXTT10=
EXTT11=
PLAYORDER=
